<?xml version="1.0" encoding="UTF-8" standalone="no" ?>
<!DOCTYPE svg PUBLIC "-//W3C//DTD SVG 1.1//EN" "http://www.w3.org/Graphics/SVG/1.1/DTD/svg11.dtd">
<svg xmlns="http://www.w3.org/2000/svg" xmlns:xlink="http://www.w3.org/1999/xlink" version="1.1" width="2048" height="2048" viewBox="0 0 2048 2048" xml:space="preserve">
<desc>Created with Fabric.js 5.3.0</desc>
<defs>
</defs>
<g transform="matrix(1 0 0 1 1034 1034)" id="ZxN-uzf4HlSoW5EITg0oC"  >
<g style=""   >
		<g transform="matrix(1 0 0 1 0 0)" id="diZcVIRFY_sYLWJlGfer7"  >
<g style=""   >
		<g transform="matrix(-20.918102693 0 0 20.918102693 0 0)" id="o-Mob52br3cNW7FOiwmX-"  >
<path style="stroke: rgb(0,0,0); stroke-width: 8; stroke-dasharray: none; stroke-linecap: butt; stroke-dashoffset: 0; stroke-linejoin: miter; stroke-miterlimit: 4; fill: rgb(0,0,0); fill-rule: nonzero; opacity: 1;"  transform=" translate(-40, -40)" d="M 65.7 25.7 L 54.2 25.7 C 47.5 25.7 41.900000000000006 30.299999999999997 40.300000000000004 36.5 L 39.6 36.5 C 38 30.3 32.4 25.7 25.700000000000003 25.7 L 14.3 25.7 C 6.4 25.7 0 32.1 0 40 C 0 47.9 6.4 54.3 14.3 54.3 L 25.8 54.3 C 32.2 54.3 37.5 50.099999999999994 39.4 44.4 L 40.6 44.4 C 42.5 50.1 47.800000000000004 54.3 54.2 54.3 L 65.7 54.3 C 73.6 54.3 80 47.9 80 40 C 80 32.1 73.6 25.7 65.7 25.7 z M 25.8 46.9 L 14.3 46.9 C 10.5 46.9 7.4 43.8 7.4 40 C 7.4 36.2 10.5 33.1 14.3 33.1 L 25.8 33.1 C 28.3 33.1 30.6 34.5 31.8 36.6 L 26.8 36.6 C 24.6 36.6 22.900000000000002 38.4 22.900000000000002 40.5 C 22.900000000000002 42.6 24.700000000000003 44.4 26.8 44.4 L 31.8 44.4 C 30.5 45.9 28 46.9 25.8 46.9 z M 65.7 46.9 L 54.2 46.9 C 52.1 46.9 49.5 45.9 48.2 44.4 L 52.5 44.4 C 54.7 44.4 56.4 42.6 56.4 40.5 C 56.4 38.4 54.6 36.6 52.5 36.6 L 48.2 36.6 C 49.400000000000006 34.5 51.6 33.1 54.2 33.1 L 65.7 33.1 C 69.5 33.1 72.60000000000001 36.2 72.60000000000001 40 C 72.6 43.8 69.5 46.9 65.7 46.9 z" stroke-linecap="round" />
</g>
		<g transform="matrix(-14.7913322638 -14.7913322638 -14.7913322638 14.7913322638 0 0)" id="FNvGZ_F1iHP3v7Dt2Cxoa"  >
<path style="stroke: rgb(0,0,0); stroke-width: 8; stroke-dasharray: none; stroke-linecap: butt; stroke-dashoffset: 0; stroke-linejoin: miter; stroke-miterlimit: 4; fill: rgb(0,0,0); fill-rule: nonzero; opacity: 1;"  transform=" translate(-40, -40)" d="M 65.7 25.7 L 54.2 25.7 C 47.5 25.7 41.900000000000006 30.299999999999997 40.300000000000004 36.5 L 39.6 36.5 C 38 30.3 32.4 25.7 25.700000000000003 25.7 L 14.3 25.7 C 6.4 25.7 0 32.1 0 40 C 0 47.9 6.4 54.3 14.3 54.3 L 25.8 54.3 C 32.2 54.3 37.5 50.099999999999994 39.4 44.4 L 40.6 44.4 C 42.5 50.1 47.800000000000004 54.3 54.2 54.3 L 65.7 54.3 C 73.6 54.3 80 47.9 80 40 C 80 32.1 73.6 25.7 65.7 25.7 z M 25.8 46.9 L 14.3 46.9 C 10.5 46.9 7.4 43.8 7.4 40 C 7.4 36.2 10.5 33.1 14.3 33.1 L 25.8 33.1 C 28.3 33.1 30.6 34.5 31.8 36.6 L 26.8 36.6 C 24.6 36.6 22.900000000000002 38.4 22.900000000000002 40.5 C 22.900000000000002 42.6 24.700000000000003 44.4 26.8 44.4 L 31.8 44.4 C 30.5 45.9 28 46.9 25.8 46.9 z M 65.7 46.9 L 54.2 46.9 C 52.1 46.9 49.5 45.9 48.2 44.4 L 52.5 44.4 C 54.7 44.4 56.4 42.6 56.4 40.5 C 56.4 38.4 54.6 36.6 52.5 36.6 L 48.2 36.6 C 49.400000000000006 34.5 51.6 33.1 54.2 33.1 L 65.7 33.1 C 69.5 33.1 72.60000000000001 36.2 72.60000000000001 40 C 72.6 43.8 69.5 46.9 65.7 46.9 z" stroke-linecap="round" />
</g>
		<g transform="matrix(0 -20.918102693 -20.918102693 0 0 0)" id="WJW_5m8Wx-3sA1H28t-5F"  >
<path style="stroke: rgb(0,0,0); stroke-width: 8; stroke-dasharray: none; stroke-linecap: butt; stroke-dashoffset: 0; stroke-linejoin: miter; stroke-miterlimit: 4; fill: rgb(0,0,0); fill-rule: nonzero; opacity: 1;"  transform=" translate(-40, -40)" d="M 65.7 25.7 L 54.2 25.7 C 47.5 25.7 41.900000000000006 30.299999999999997 40.300000000000004 36.5 L 39.6 36.5 C 38 30.3 32.4 25.7 25.700000000000003 25.7 L 14.3 25.7 C 6.4 25.7 0 32.1 0 40 C 0 47.9 6.4 54.3 14.3 54.3 L 25.8 54.3 C 32.2 54.3 37.5 50.099999999999994 39.4 44.4 L 40.6 44.4 C 42.5 50.1 47.800000000000004 54.3 54.2 54.3 L 65.7 54.3 C 73.6 54.3 80 47.9 80 40 C 80 32.1 73.6 25.7 65.7 25.7 z M 25.8 46.9 L 14.3 46.9 C 10.5 46.9 7.4 43.8 7.4 40 C 7.4 36.2 10.5 33.1 14.3 33.1 L 25.8 33.1 C 28.3 33.1 30.6 34.5 31.8 36.6 L 26.8 36.6 C 24.6 36.6 22.900000000000002 38.4 22.900000000000002 40.5 C 22.900000000000002 42.6 24.700000000000003 44.4 26.8 44.4 L 31.8 44.4 C 30.5 45.9 28 46.9 25.8 46.9 z M 65.7 46.9 L 54.2 46.9 C 52.1 46.9 49.5 45.9 48.2 44.4 L 52.5 44.4 C 54.7 44.4 56.4 42.6 56.4 40.5 C 56.4 38.4 54.6 36.6 52.5 36.6 L 48.2 36.6 C 49.400000000000006 34.5 51.6 33.1 54.2 33.1 L 65.7 33.1 C 69.5 33.1 72.60000000000001 36.2 72.60000000000001 40 C 72.6 43.8 69.5 46.9 65.7 46.9 z" stroke-linecap="round" />
</g>
		<g transform="matrix(-14.7913322638 14.7913322638 14.7913322638 14.7913322638 0 0)" id="361JCV5iGPNLFNCOSodi6"  >
<path style="stroke: rgb(0,0,0); stroke-width: 8; stroke-dasharray: none; stroke-linecap: butt; stroke-dashoffset: 0; stroke-linejoin: miter; stroke-miterlimit: 4; fill: rgb(0,0,0); fill-rule: nonzero; opacity: 1;"  transform=" translate(-40, -40)" d="M 65.7 25.7 L 54.2 25.7 C 47.5 25.7 41.900000000000006 30.299999999999997 40.300000000000004 36.5 L 39.6 36.5 C 38 30.3 32.4 25.7 25.700000000000003 25.7 L 14.3 25.7 C 6.4 25.7 0 32.1 0 40 C 0 47.9 6.4 54.3 14.3 54.3 L 25.8 54.3 C 32.2 54.3 37.5 50.099999999999994 39.4 44.4 L 40.6 44.4 C 42.5 50.1 47.800000000000004 54.3 54.2 54.3 L 65.7 54.3 C 73.6 54.3 80 47.9 80 40 C 80 32.1 73.6 25.7 65.7 25.7 z M 25.8 46.9 L 14.3 46.9 C 10.5 46.9 7.4 43.8 7.4 40 C 7.4 36.2 10.5 33.1 14.3 33.1 L 25.8 33.1 C 28.3 33.1 30.6 34.5 31.8 36.6 L 26.8 36.6 C 24.6 36.6 22.900000000000002 38.4 22.900000000000002 40.5 C 22.900000000000002 42.6 24.700000000000003 44.4 26.8 44.4 L 31.8 44.4 C 30.5 45.9 28 46.9 25.8 46.9 z M 65.7 46.9 L 54.2 46.9 C 52.1 46.9 49.5 45.9 48.2 44.4 L 52.5 44.4 C 54.7 44.4 56.4 42.6 56.4 40.5 C 56.4 38.4 54.6 36.6 52.5 36.6 L 48.2 36.6 C 49.400000000000006 34.5 51.6 33.1 54.2 33.1 L 65.7 33.1 C 69.5 33.1 72.60000000000001 36.2 72.60000000000001 40 C 72.6 43.8 69.5 46.9 65.7 46.9 z" stroke-linecap="round" />
</g>
</g>
</g>
		<g transform="matrix(1 0 0 1 10 10)" id="NZbeilhqqEYcY5iDB-Nl5"  >
<g style=""   >
		<g transform="matrix(20.918102693 0 0 20.918102693 0 0)" id="xu6FJMq81ZHSvj02tXaiI"  >
<path style="stroke: none; stroke-width: 1; stroke-dasharray: none; stroke-linecap: butt; stroke-dashoffset: 0; stroke-linejoin: miter; stroke-miterlimit: 4; fill: rgb(252,134,29); fill-opacity: 0.75; fill-rule: nonzero; opacity: 1;"  transform=" translate(-40, -40)" d="M 65.7 25.7 L 54.2 25.7 C 47.5 25.7 41.900000000000006 30.299999999999997 40.300000000000004 36.5 L 39.6 36.5 C 38 30.3 32.4 25.7 25.700000000000003 25.7 L 14.3 25.7 C 6.4 25.7 0 32.1 0 40 C 0 47.9 6.4 54.3 14.3 54.3 L 25.8 54.3 C 32.2 54.3 37.5 50.099999999999994 39.4 44.4 L 40.6 44.4 C 42.5 50.1 47.800000000000004 54.3 54.2 54.3 L 65.7 54.3 C 73.6 54.3 80 47.9 80 40 C 80 32.1 73.6 25.7 65.7 25.7 z M 25.8 46.9 L 14.3 46.9 C 10.5 46.9 7.4 43.8 7.4 40 C 7.4 36.2 10.5 33.1 14.3 33.1 L 25.8 33.1 C 28.3 33.1 30.6 34.5 31.8 36.6 L 26.8 36.6 C 24.6 36.6 22.900000000000002 38.4 22.900000000000002 40.5 C 22.900000000000002 42.6 24.700000000000003 44.4 26.8 44.4 L 31.8 44.4 C 30.5 45.9 28 46.9 25.8 46.9 z M 65.7 46.9 L 54.2 46.9 C 52.1 46.9 49.5 45.9 48.2 44.4 L 52.5 44.4 C 54.7 44.4 56.4 42.6 56.4 40.5 C 56.4 38.4 54.6 36.6 52.5 36.6 L 48.2 36.6 C 49.400000000000006 34.5 51.6 33.1 54.2 33.1 L 65.7 33.1 C 69.5 33.1 72.60000000000001 36.2 72.60000000000001 40 C 72.6 43.8 69.5 46.9 65.7 46.9 z" stroke-linecap="round" />
</g>
		<g transform="matrix(0 -20.918102693 20.918102693 0 0 0)" id="XK1NJAfwL4ay-Zcwy1eVC"  >
<path style="stroke: none; stroke-width: 1; stroke-dasharray: none; stroke-linecap: butt; stroke-dashoffset: 0; stroke-linejoin: miter; stroke-miterlimit: 4; fill: rgb(252,134,29); fill-opacity: 0.75; fill-rule: nonzero; opacity: 1;"  transform=" translate(-40, -40)" d="M 65.7 25.7 L 54.2 25.7 C 47.5 25.7 41.900000000000006 30.299999999999997 40.300000000000004 36.5 L 39.6 36.5 C 38 30.3 32.4 25.7 25.700000000000003 25.7 L 14.3 25.7 C 6.4 25.7 0 32.1 0 40 C 0 47.9 6.4 54.3 14.3 54.3 L 25.8 54.3 C 32.2 54.3 37.5 50.099999999999994 39.4 44.4 L 40.6 44.4 C 42.5 50.1 47.800000000000004 54.3 54.2 54.3 L 65.7 54.3 C 73.6 54.3 80 47.9 80 40 C 80 32.1 73.6 25.7 65.7 25.7 z M 25.8 46.9 L 14.3 46.9 C 10.5 46.9 7.4 43.8 7.4 40 C 7.4 36.2 10.5 33.1 14.3 33.1 L 25.8 33.1 C 28.3 33.1 30.6 34.5 31.8 36.6 L 26.8 36.6 C 24.6 36.6 22.900000000000002 38.4 22.900000000000002 40.5 C 22.900000000000002 42.6 24.700000000000003 44.4 26.8 44.4 L 31.8 44.4 C 30.5 45.9 28 46.9 25.8 46.9 z M 65.7 46.9 L 54.2 46.9 C 52.1 46.9 49.5 45.9 48.2 44.4 L 52.5 44.4 C 54.7 44.4 56.4 42.6 56.4 40.5 C 56.4 38.4 54.6 36.6 52.5 36.6 L 48.2 36.6 C 49.400000000000006 34.5 51.6 33.1 54.2 33.1 L 65.7 33.1 C 69.5 33.1 72.60000000000001 36.2 72.60000000000001 40 C 72.6 43.8 69.5 46.9 65.7 46.9 z" stroke-linecap="round" />
</g>
		<g transform="matrix(14.7913322638 -14.7913322638 14.7913322638 14.7913322638 0 0)" id="Gy1jwP5d9EhklXL5jYjp2"  >
<path style="stroke: none; stroke-width: 1; stroke-dasharray: none; stroke-linecap: butt; stroke-dashoffset: 0; stroke-linejoin: miter; stroke-miterlimit: 4; fill: rgb(252,134,29); fill-opacity: 0.75; fill-rule: nonzero; opacity: 1;"  transform=" translate(-40, -40)" d="M 65.7 25.7 L 54.2 25.7 C 47.5 25.7 41.900000000000006 30.299999999999997 40.300000000000004 36.5 L 39.6 36.5 C 38 30.3 32.4 25.7 25.700000000000003 25.7 L 14.3 25.7 C 6.4 25.7 0 32.1 0 40 C 0 47.9 6.4 54.3 14.3 54.3 L 25.8 54.3 C 32.2 54.3 37.5 50.099999999999994 39.4 44.4 L 40.6 44.4 C 42.5 50.1 47.800000000000004 54.3 54.2 54.3 L 65.7 54.3 C 73.6 54.3 80 47.9 80 40 C 80 32.1 73.6 25.7 65.7 25.7 z M 25.8 46.9 L 14.3 46.9 C 10.5 46.9 7.4 43.8 7.4 40 C 7.4 36.2 10.5 33.1 14.3 33.1 L 25.8 33.1 C 28.3 33.1 30.6 34.5 31.8 36.6 L 26.8 36.6 C 24.6 36.6 22.900000000000002 38.4 22.900000000000002 40.5 C 22.900000000000002 42.6 24.700000000000003 44.4 26.8 44.4 L 31.8 44.4 C 30.5 45.9 28 46.9 25.8 46.9 z M 65.7 46.9 L 54.2 46.9 C 52.1 46.9 49.5 45.9 48.2 44.4 L 52.5 44.4 C 54.7 44.4 56.4 42.6 56.4 40.5 C 56.4 38.4 54.6 36.6 52.5 36.6 L 48.2 36.6 C 49.400000000000006 34.5 51.6 33.1 54.2 33.1 L 65.7 33.1 C 69.5 33.1 72.60000000000001 36.2 72.60000000000001 40 C 72.6 43.8 69.5 46.9 65.7 46.9 z" stroke-linecap="round" />
</g>
		<g transform="matrix(14.7913322638 14.7913322638 -14.7913322638 14.7913322638 0 0)" id="V9prgJmSh-yHnJNjERgzK"  >
<path style="stroke: none; stroke-width: 1; stroke-dasharray: none; stroke-linecap: butt; stroke-dashoffset: 0; stroke-linejoin: miter; stroke-miterlimit: 4; fill: rgb(252,134,29); fill-opacity: 0.75; fill-rule: nonzero; opacity: 1;"  transform=" translate(-40, -40)" d="M 65.7 25.7 L 54.2 25.7 C 47.5 25.7 41.900000000000006 30.299999999999997 40.300000000000004 36.5 L 39.6 36.5 C 38 30.3 32.4 25.7 25.700000000000003 25.7 L 14.3 25.7 C 6.4 25.7 0 32.1 0 40 C 0 47.9 6.4 54.3 14.3 54.3 L 25.8 54.3 C 32.2 54.3 37.5 50.099999999999994 39.4 44.4 L 40.6 44.4 C 42.5 50.1 47.800000000000004 54.3 54.2 54.3 L 65.7 54.3 C 73.6 54.3 80 47.9 80 40 C 80 32.1 73.6 25.7 65.7 25.7 z M 25.8 46.9 L 14.3 46.9 C 10.5 46.9 7.4 43.8 7.4 40 C 7.4 36.2 10.5 33.1 14.3 33.1 L 25.8 33.1 C 28.3 33.1 30.6 34.5 31.8 36.6 L 26.8 36.6 C 24.6 36.6 22.900000000000002 38.4 22.900000000000002 40.5 C 22.900000000000002 42.6 24.700000000000003 44.4 26.8 44.4 L 31.8 44.4 C 30.5 45.9 28 46.9 25.8 46.9 z M 65.7 46.9 L 54.2 46.9 C 52.1 46.9 49.5 45.9 48.2 44.4 L 52.5 44.4 C 54.7 44.4 56.4 42.6 56.4 40.5 C 56.4 38.4 54.6 36.6 52.5 36.6 L 48.2 36.6 C 49.400000000000006 34.5 51.6 33.1 54.2 33.1 L 65.7 33.1 C 69.5 33.1 72.60000000000001 36.2 72.60000000000001 40 C 72.6 43.8 69.5 46.9 65.7 46.9 z" stroke-linecap="round" />
</g>
</g>
</g>
</g>
</g>
</svg>